#!OML:ASF E:\CV Data\Top Level 1\Subject 1\Session 1\player.ASF
:FULLY-SPECIFIED
:DEGREES
1184
root -2.26523 16.9223 3.99622 -1.61414 4.15744 -10.8572
lowerback 12.353 3.67471 6.11795
upperback -0.334132 6.00156 2.97878
thorax -6.98256 2.7654 -1.34657
lowerneck -8.24355 -14.7888 -18.4116
upperneck 10.8363 -20.9424 20.5033
head 8.98891 -9.59707 7.05512
rclavicle 9.23852e-014 3.27995e-014
rhumerus 375.965 358.185 657.59
rradius 68.8749
rwrist -26.1367
rhand -28.3743 12.1547
rfingers 7.12502
rthumb -1.74739 -17.8179
lclavicle 9.23852e-014 3.27995e-014
lhumerus -37.5082 21.2917 67.2776
lradius 40.1795
lwrist -1.23283
lhand -18.4185 10.7128
lfingers 7.12502
lthumb 7.86647 40.5464
rfemur -2.77196 -2.12687 28.286
rtibia 35.1333
rfoot -25.8891 -19.1368
rtoes -9.50075
lfemur -27.5031 -8.72636 5.83094
ltibia 32.7232
lfoot -1.3756 7.69738
ltoes 12.889
1185
root -2.32257 16.9338 3.93158 -1.39574 3.30322 -10.8023
lowerback 12.3403 3.68479 6.03584
upperback -0.353338 6.00842 3.05105
thorax -7.01203 2.77161 -1.22672
lowerneck -8.86546 -14.6145 -18.1327
upperneck 11.0742 -20.6378 20.3061
head 9.05884 -9.40874 6.97338
rclavicle 8.16135e-014 2.72335e-014
rhumerus 375.273 359.918 657.085
rradius 69.946
rwrist -25.2427
rhand -28.4148 12.4294
rfingers 7.12502
rthumb -1.78658 -17.5428
lclavicle 8.16135e-014 2.72335e-014
lhumerus -37.5906 21.3433 67.7124
lradius 40.0826
lwrist -1.21411
lhand -18.3546 10.4423
lfingers 7.12502
lthumb 7.9281 40.2736
rfemur -3.15838 -1.53377 28.4089
rtibia 35.0055
rfoot -25.8108 -18.7486
rtoes -9.18022
lfemur -27.1822 -8.60459 6.06048
ltibia 32.6143
lfoot -2.15254 9.49529
ltoes 14.4001
1186
root -2.37798 16.9478 3.86807 -1.22115 2.4628 -10.7291
lowerback 12.3501 3.68632 5.92559
upperback -0.338111 5.99884 3.11729
thorax -7.02024 2.77194 -1.09542
lowerneck -9.50682 -14.4448 -17.8455
upperneck 11.3084 -20.3492 20.1499
head 9.14096 -9.2243 6.90069
rclavicle 5.2094e-014 3.33958e-014
rhumerus 374.535 361.665 656.544
rradius 70.9102
rwrist -24.3423
rhand -28.4137 12.7029
rfingers 7.12502
rthumb -1.78547 -17.2693
lclavicle 5.2094e-014 3.33958e-014
lhumerus -37.648 21.3739 68.1809
lradius 39.98
lwrist -1.17947
lhand -18.239 10.1386
lfingers 7.12502
lthumb 8.03964 39.9656
rfemur -3.54077 -0.984548 28.4798
rtibia 34.9644
rfoot -25.711 -18.2307
rtoes -8.91745
lfemur -26.8085 -8.38058 6.20314
ltibia 32.5499
lfoot -3.01268 11.1247
ltoes 15.4183
1187
root -2.43083 16.964 3.80632 -1.09175 1.64131 -10.6312
lowerback 12.3849 3.67657 5.78873
upperback -0.297349 5.96984 3.17324
thorax -7.01745 2.7642 -0.957922
lowerneck -10.151 -14.274 -17.5551
upperneck 11.5381 -20.071 20.0368
head 9.23142 -9.04202 6.841
rclavicle -1.05107e-014 6.75868e-015
rhumerus 373.735 363.428 655.957
rradius 71.7564
rwrist -23.4508
rhand -28.3619 12.9868
rfingers 7.12502
rthumb -1.73542 -16.9859
lclavicle -1.05107e-014 6.75868e-015
lhumerus -37.6884 21.3583 68.6812
lradius 39.8607
lwrist -1.12521
lhand -18.1143 9.82295
lfingers 7.12502
lthumb 8.16001 39.6454
rfemur -3.90741 -0.521421 28.4922
rtibia 34.9874
rfoot -25.6116 -17.5998
rtoes -8.6136
lfemur -26.3968 -8.05031 6.24456
ltibia 32.5415
lfoot -3.88794 12.4305
ltoes 15.8549
1188
root -2.48143 16.9818 3.74603 -0.991547 0.873158 -10.5012
lowerback 12.4356 3.64854 5.61534
upperback -0.24209 5.91076 3.21943
thorax -7.01184 2.74313 -0.806116
lowerneck -10.7921 -14.1044 -17.2618
upperneck 11.7636 -19.8039 19.9487
head 9.32673 -8.86364 6.78834
rclavicle 5.43428e-014 2.57426e-014
rhumerus 372.86 365.196 655.322
rradius 72.4748
rwrist -22.5783
rhand -28.2517 13.2911
rfingers 7.12502
rthumb -1.62899 -16.6824
lclavicle 5.43428e-014 2.57426e-014
lhumerus -37.7059 21.2865 69.2217
lradius 39.7118
lwrist -1.0608
lhand -17.9932 9.52412
lfingers 7.12502
lthumb 8.2769 39.342
rfemur -4.26153 -0.173303 28.4498
rtibia 35.0442
rfoot -25.5249 -16.9128
rtoes -8.21168
lfemur -25.994 -7.60991 6.17545
ltibia 32.5998
lfoot -4.74489 13.2768
ltoes 15.7213
1189
root -2.52994 17.0009 3.68751 -0.910482 0.186092 -10.3303
lowerback 12.4881 3.59743 5.39896
upperback -0.182979 5.8138 3.25484
thorax -7.00728 2.70489 -0.635349
lowerneck -11.403 -13.9332 -16.9695
upperneck 11.9728 -19.5427 19.8745
head 9.41563 -8.68964 6.74189
rclavicle -7.27366e-014 -5.51627e-014
rhumerus 371.891 366.963 654.644
rradius 73.0555
rwrist -21.7375
rhand -28.0919 13.6153
rfingers 7.12502
rthumb -1.47469 -16.3594
lclavicle -7.27366e-014 -5.51627e-014
lhumerus -37.6994 21.1474 69.8012
lradius 39.5139
lwrist -1.00982
lhand -17.8643 9.24366
lfingers 7.12502
lthumb 8.40128 39.0566
rfemur -4.59677 0.0652607 28.3553
rtibia 35.1073
rfoot -25.4444 -16.2474
rtoes -7.75937
lfemur -25.6277 -7.07527 5.98878
ltibia 32.731
lfoot -5.57846 13.6135
ltoes 14.9967
1190
root -2.57669 17.0211 3.63108 -0.838504 -0.409828 -10.1114
lowerback 12.5201 3.52313 5.13032
upperback -0.116287 5.67569 3.28221
thorax -6.98781 2.64882 -0.435143
lowerneck -12.0004 -13.762 -16.6836
upperneck 12.1654 -19.2834 19.8025
head 9.49907 -8.51812 6.69806
rclavicle 6.23687e-015 3.42904e-014
rhumerus 370.843 368.718 653.93
rradius 73.4824
rwrist -20.9382
rhand -27.871 13.9524
rfingers 7.12502
rthumb -1.26128 -16.0236
lclavicle 6.23687e-015 3.42904e-014
lhumerus -37.6444 20.9447 70.4321
lradius 39.2489
lwrist -0.977774
lhand -17.7442 8.97625
lfingers 7.12502
lthumb 8.51722 38.7845
rfemur -4.90822 0.23645 28.2116
rtibia 35.1571
rfoot -25.3671 -15.6504
rtoes -7.28031
lfemur -25.3111 -6.47764 5.68612
ltibia 32.9339
lfoot -6.41468 13.4553
ltoes 13.6833
1191
root -2.62216 17.042 3.5767 -0.774833 -0.892357 -9.84629
lowerback 12.5297 3.42323 4.81532
upperback -0.0441853 5.49433 3.30171
thorax -6.9534 2.57354 -0.208024
lowerneck -12.5795 -13.5933 -16.4065
upperneck 12.3355 -19.0275 19.7281
head 9.57403 -8.35072 6.65535
rclavicle 1.30515e-014 -1.10822e-014
rhumerus 369.711 370.44 653.183
rradius 73.7496
rwrist -20.1851
rhand -27.606 14.2739
rfingers 7.12502
rthumb -1.00539 -15.7034
lclavicle 1.30515e-014 -1.10822e-014
lhumerus -37.5266 20.6657 71.119
lradius 38.9116
lwrist -0.985579
lhand -17.6 8.72799
lfingers 7.12502
lthumb 8.65637 38.5305
rfemur -5.19277 0.377619 28.0319
rtibia 35.1859
rfoot -25.2936 -15.1685
rtoes -6.80438
lfemur -25.0528 -5.87231 5.28242
ltibia 33.2026
lfoot -7.26393 12.8486
ltoes 11.8826
1192
root -2.66619 17.0633 3.52469 -0.719821 -1.27672 -9.54098
lowerback 12.5021 3.30345 4.46809
upperback 0.0394166 5.27837 3.3148
thorax -6.88677 2.48309 0.0394362
lowerneck -13.1339 -13.4284 -16.144
upperneck 12.4767 -18.7742 19.6486
head 9.63706 -8.18822 6.61396
rclavicle -2.98488e-014 -2.05245e-014
rhumerus 368.497 372.111 652.404
rradius 73.8469
rwrist -19.4881
rhand -27.3032 14.5725
rfingers 7.12502
rthumb -0.712901 -15.4061
lclavicle -2.98488e-014 -2.05245e-014
lhumerus -37.3314 20.3192 71.8591
lradius 38.4943
lwrist -1.0733
lhand -17.4058 8.50351
lfingers 7.12502
lthumb 8.84378 38.2982
rfemur -5.45031 0.523574 27.8235
rtibia 35.1954
rfoot -25.221 -14.8097
rtoes -6.33944
lfemur -24.8381 -5.31917 4.79814
ltibia 33.5308
lfoot -8.13298 11.895
ltoes 9.7384
1193
root -2.70863 17.0845 3.47479 -0.67514 -1.57002 -9.21236
lowerback 12.4536 3.16671 4.1147
upperback 0.126462 5.0375 3.32116
thorax -6.80254 2.38053 0.289266
lowerneck -13.6476 -13.2669 -15.9013
upperneck 12.5851 -18.5255 19.5744
head 9.68597 -8.03214 6.57854
rclavicle 1.76949e-014 -2.49847e-014
rhumerus 367.187 373.711 651.579
rradius 73.7699
rwrist -18.8416
rhand -26.9705 14.8149
rfingers 7.12502
rthumb -0.391626 -15.1645
lclavicle 1.76949e-014 -2.49847e-014
lhumerus -37.0622 19.8843 72.6476
lradius 38.0061
lwrist -1.25215
lhand -17.1511 8.3251
lfingers 7.12502
lthumb 9.08952 38.1092
rfemur -5.68206 0.692074 27.6049
rtibia 35.1921
rfoot -25.1537 -14.5713
rtoes -5.86041
lfemur -24.662 -4.85527 4.26296
ltibia 33.9184
lfoot -9.01704 10.6877
ltoes 7.38787
1194
root -2.74926 17.1052 3.42671 -0.636899 -1.79517 -8.88301
lowerback 12.3885 3.02103 3.78386
upperback 0.210965 4.78765 3.32454
thorax -6.70685 2.27238 0.526064
lowerneck -14.1071 -13.1111 -15.6873
upperneck 12.6687 -18.2856 19.5081
head 9.7229 -7.8853 6.55122
rclavicle 5.10085e-014 4.40805e-014
rhumerus 365.764 375.216 650.698
rradius 73.5245
rwrist -18.2566
rhand -26.6237 14.9913
rfingers 7.12502
rthumb -0.0566194 -14.9884
lclavicle 5.10085e-014 4.40805e-014
lhumerus -36.7343 19.3728 73.4675
lradius 37.4569
lwrist -1.58591
lhand -16.7987 8.20069
lfingers 7.12502
lthumb 9.42954 37.9697
rfemur -5.8943 0.898483 27.3974
rtibia 35.1811
rfoot -25.0898 -14.4383
rtoes -5.36861
lfemur -24.5181 -4.4857 3.70701
ltibia 34.3719
lfoot -9.91261 9.33133
ltoes 4.98125
